<svg xmlns="http://www.w3.org/2000/svg" version="1.1" xmlns:xlink="http://www.w3.org/1999/xlink" xmlns:svgjs="http://svgjs.dev/svgjs" viewBox="0 0 800 800"><defs><filter id="bbburst-blur-1" x="-100%" y="-100%" width="400%" height="400%"><feGaussianBlur in="SourceGraphic" stdDeviation="1"></feGaussianBlur></filter><filter id="bbburst-blur-2" x="-100%" y="-100%" width="400%" height="400%"><feGaussianBlur in="SourceGraphic" stdDeviation="2"></feGaussianBlur></filter><filter id="bbburst-blur-3" x="-100%" y="-100%" width="400%" height="400%"><feGaussianBlur in="SourceGraphic" stdDeviation="4"></feGaussianBlur></filter><filter id="bbburst-blur-4" x="-100%" y="-100%" width="400%" height="400%"><feGaussianBlur in="SourceGraphic" stdDeviation="12"></feGaussianBlur></filter><symbol id="bbburst-shape-4" viewBox="0 0 149 143"><path d="M71.647 2.781c.898-2.764 4.808-2.764 5.706 0l15.445 47.534a3 3 0 0 0 2.853 2.073h49.98c2.906 0 4.115 3.719 1.764 5.427L106.96 87.193a2.999 2.999 0 0 0-1.09 3.354l15.445 47.534c.898 2.764-2.266 5.062-4.617 3.354l-40.435-29.378a3 3 0 0 0-3.526 0l-40.435 29.378c-2.351 1.708-5.515-.59-4.617-3.354L43.13 90.547a3 3 0 0 0-1.09-3.354L1.605 57.815c-2.35-1.708-1.142-5.427 1.764-5.427h49.98a3 3 0 0 0 2.853-2.073L71.647 2.781Z"></path></symbol><symbol id="bbburst-shape-10" viewBox="0 0 145 145"><circle cx="72.5" cy="72.5" r="61.5" fill="none" stroke-width="22"></circle></symbol></defs><use xlink:href="#bbburst-shape-4" width="24.00537046044675" opacity="0.18286087528944217" transform="matrix(1.2470024955579981,0.08651460034077771,-0.08651460034077771,1.2470024955579981,440.09153601267224,267.33099556912316)" fill="#fab005" filter="url(#bbburst-blur-3)"></use><use xlink:href="#bbburst-shape-4" width="34.39166974897576" opacity="0.1912958840808595" transform="matrix(1.17415083434845,-0.4288004409965534,0.4288004409965534,1.17415083434845,567.4974423461827,-120.68443709896809)" fill="#fab005" filter="url(#bbburst-blur-3)"></use><use xlink:href="#bbburst-shape-4" width="24.774205160360257" opacity="0.5607765427995302" transform="matrix(0.7741950245574016,-0.6329471257147505,0.6329471257147505,0.7741950245574016,293.02393945286315,219.8299826956577)" fill="#fab005" filter="url(#bbburst-blur-1)"></use><use xlink:href="#bbburst-shape-4" width="24.459388290888732" opacity="0.6014417896295048" transform="matrix(0.9665684642289282,0.2564086659185514,-0.2564086659185514,0.9665684642289282,620.3123337972488,-113.74600360993975)" fill="#fab005" filter="url(#bbburst-blur-1)"></use><use xlink:href="#bbburst-shape-4" width="23.20506395820447" opacity="0.7225757457125496" transform="matrix(0.734179581921413,-0.6789553309973339,0.6789553309973339,0.734179581921413,232.2936911711874,59.852022604343574)" fill="#fab005" filter="url(#bbburst-blur-1)"></use><use xlink:href="#bbburst-shape-10" width="36.17901044791584" opacity="0.4365587853344224" transform="matrix(0.7071196636473198,-0.7070938984910712,0.7070938984910712,0.7071196636473198,-34.350475023167235,-82.29076483006105)" fill="none" stroke="#fab005" filter="url(#bbburst-blur-2)"></use><use xlink:href="#bbburst-shape-10" width="20.576436786819404" opacity="0.669698903848764" transform="matrix(0.827220240933154,-0.5618778096619359,0.5618778096619359,0.827220240933154,314.69637688910177,60.718653380404476)" fill="none" stroke="#fab005" filter="url(#bbburst-blur-1)"></use><use xlink:href="#bbburst-shape-4" width="54.56884816694254" opacity="-0.07140008213310889" transform="matrix(1.7499866656436665,-0.006831549557921905,0.006831549557921905,1.7499866656436665,692.9731762868839,-638.0844251249605)" fill="#fab005" filter="url(#bbburst-blur-4)"></use><use xlink:href="#bbburst-shape-10" width="21.156647844349944" opacity="0.6310640215981873" transform="matrix(0.8381611454353157,-0.5454226748885304,0.5454226748885304,0.8381611454353157,174.84907295267357,236.51570733776668)" fill="none" stroke="#fab005" filter="url(#bbburst-blur-1)"></use><use xlink:href="#bbburst-shape-4" width="46.423357399778" opacity="0.07322869580206981" transform="matrix(1.5620191463001236,0.7890476453243069,-0.7890476453243069,1.5620191463001236,1030.6824212215201,-18.382196411291147)" fill="#fab005" filter="url(#bbburst-blur-4)"></use><use xlink:href="#bbburst-shape-10" width="31.758513240750084" opacity="0.25954423290520723" transform="matrix(1.2170638504175704,-0.28505365110231073,0.28505365110231073,1.2170638504175704,100.27219258723494,-370.9914115795287)" fill="none" stroke="#fab005" filter="url(#bbburst-blur-3)"></use><use xlink:href="#bbburst-shape-10" width="12.28916770030559" opacity="0.8689004034312909" transform="matrix(0.9896048290614291,0.14381335924836638,-0.14381335924836638,0.9896048290614291,437.2876162222964,-53.99659045942781)" fill="none" stroke="#fab005"></use><use xlink:href="#bbburst-shape-4" width="20.120319266065696" opacity="0.8237544200061228" transform="matrix(0.8588400425941316,0.5122438689110004,-0.5122438689110004,0.8588400425941316,621.386065486062,126.54767100593358)" fill="#fab005"></use><use xlink:href="#bbburst-shape-4" width="15.854052163603562" opacity="0.8791476995749038" transform="matrix(0.7845634928630669,0.6200484865448058,-0.6200484865448058,0.7845634928630669,629.1589425308083,134.16682808717974)" fill="#fab005"></use><use xlink:href="#bbburst-shape-10" width="32.531819786569486" opacity="0.5117950153350375" transform="matrix(0.9947461373484624,-0.10237246812651317,0.10237246812651317,0.9947461373484624,393.4562728911741,217.55579904890277)" fill="none" stroke="#fab005" filter="url(#bbburst-blur-2)"></use><use xlink:href="#bbburst-shape-4" width="12.156127481869568" opacity="0.9025582988274501" transform="matrix(0.8449079448743008,-0.5349117354183637,0.5349117354183637,0.8449079448743008,201.61697367913845,103.94660216436102)" fill="#fab005"></use><use xlink:href="#bbburst-shape-10" width="35.619907571779606" opacity="0.3863563790134491" transform="matrix(0.7425789909179273,0.6697584954648301,-0.6697584954648301,0.7425789909179273,866.4257710555142,268.28567960186746)" fill="none" stroke="#fab005" filter="url(#bbburst-blur-2)"></use><use xlink:href="#bbburst-shape-4" width="39.671062518205915" opacity="0.4213060754623994" transform="matrix(0.9868085251180331,-0.16189173775820775,0.16189173775820775,0.9868085251180331,569.0294849954669,-51.694242395949686)" fill="#fab005" filter="url(#bbburst-blur-2)"></use><use xlink:href="#bbburst-shape-4" width="19.731132567118742" opacity="0.6082612941820256" transform="matrix(0.8591899615529791,0.5116567305983478,-0.5116567305983478,0.8591899615529791,445.47952019155855,142.75596479921904)" fill="#fab005" filter="url(#bbburst-blur-1)"></use><use xlink:href="#bbburst-shape-4" width="27.893908040126668" opacity="0.4752055329045586" transform="matrix(0.9692363306924051,-0.24613194686168374,0.24613194686168374,0.9692363306924051,266.89972368779854,250.97262835230765)" fill="#fab005" filter="url(#bbburst-blur-2)"></use><use xlink:href="#bbburst-shape-10" width="36.349557342339395" opacity="0.1673859833976059" transform="matrix(0.9639591159887685,0.7957906902585327,-0.7957906902585327,0.9639591159887685,797.5523094345467,-362.0147194135694)" fill="none" stroke="#fab005" filter="url(#bbburst-blur-3)"></use><use xlink:href="#bbburst-shape-4" width="32.067783135846454" opacity="0.17150064728638792" transform="matrix(1.1978726608092019,0.35721294557432065,-0.35721294557432065,1.1978726608092019,886.7024342106567,0.036896291093341915)" fill="#fab005" filter="url(#bbburst-blur-3)"></use><use xlink:href="#bbburst-shape-10" width="24.730929492666483" opacity="0.44747653958584344" transform="matrix(0.7168382431184612,-0.6972395092095957,0.6972395092095957,0.7168382431184612,150.81729479891538,-123.7381978428322)" fill="none" stroke="#fab005" filter="url(#bbburst-blur-2)"></use><use xlink:href="#bbburst-shape-4" width="21.552240968993246" opacity="0.7994475231576834" transform="matrix(0.9898820146480691,-0.14189290706825283,0.14189290706825283,0.9898820146480691,279.7879358155308,-67.60253440746624)" fill="#fab005"></use><use xlink:href="#bbburst-shape-4" width="21.466977235516854" opacity="0.5886330445094743" transform="matrix(0.7304689051742137,0.682945955821971,-0.682945955821971,0.7304689051742137,693.8800239786729,-82.4031623870163)" fill="#fab005" filter="url(#bbburst-blur-1)"></use><use xlink:href="#bbburst-shape-4" width="30.76270984038765" opacity="0.6543926846202207" transform="matrix(0.7498875688702862,0.6615652908472539,-0.6615652908472539,0.7498875688702862,799.6101590819727,141.99050738228607)" fill="#fab005" filter="url(#bbburst-blur-1)"></use><use xlink:href="#bbburst-shape-10" width="31.643432682049117" opacity="0.4536999938528875" transform="matrix(0.8236055644755612,-0.5671630049332309,0.5671630049332309,0.8236055644755612,389.88431610384407,166.91449806773136)" fill="none" stroke="#fab005" filter="url(#bbburst-blur-2)"></use><use xlink:href="#bbburst-shape-10" width="18.872463850755622" opacity="0.7627743501883792" transform="matrix(0.9950979896298305,0.09889383719256511,-0.09889383719256511,0.9950979896298305,502.0846189671346,-77.86364123771443)" fill="none" stroke="#fab005" filter="url(#bbburst-blur-1)"></use><use xlink:href="#bbburst-shape-10" width="39.301288352266425" opacity="0.37288798413513036" transform="matrix(0.8779244090448893,0.47879926065438094,-0.47879926065438094,0.8779244090448893,510.51907823874245,-235.48420800951044)" fill="none" stroke="#fab005" filter="url(#bbburst-blur-2)"></use><use xlink:href="#bbburst-shape-10" width="22.50052798310588" opacity="0.7338680231023075" transform="matrix(0.823444319176806,0.5673970860124735,-0.5673970860124735,0.823444319176806,507.65252928568196,111.4935156831288)" fill="none" stroke="#fab005" filter="url(#bbburst-blur-1)"></use><use xlink:href="#bbburst-shape-4" width="34.16312561402864" opacity="0.4825937765176399" transform="matrix(0.9261803722129393,0.37708078461717104,-0.37708078461717104,0.9261803722129393,649.8113183105071,-179.44189724254298)" fill="#fab005" filter="url(#bbburst-blur-2)"></use><use xlink:href="#bbburst-shape-10" width="10.998976606271878" opacity="0.8866923350953453" transform="matrix(0.9685891837111518,0.24866642957537444,-0.24866642957537444,0.9685891837111518,528.3733498356673,-26.590633473688968)" fill="none" stroke="#fab005"></use><use xlink:href="#bbburst-shape-10" width="25.93274839138336" opacity="0.3356525788428667" transform="matrix(0.7404936820542419,-0.6720633205567398,0.6720633205567398,0.7404936820542419,33.39528644016508,398.17311303576133)" fill="none" stroke="#fab005" filter="url(#bbburst-blur-2)"></use><use xlink:href="#bbburst-shape-10" width="30.545258084198487" opacity="0.32241372532983215" transform="matrix(0.9866117159318613,0.767526756527737,-0.767526756527737,0.9866117159318613,451.70341006706826,-194.13690003641418)" fill="none" stroke="#fab005" filter="url(#bbburst-blur-3)"></use><use xlink:href="#bbburst-shape-10" width="16.423329899826463" opacity="0.7166104210267507" transform="matrix(0.9843528899289664,-0.17620836554628194,0.17620836554628194,0.9843528899289664,367.3808901365271,126.66605398665268)" fill="none" stroke="#fab005" filter="url(#bbburst-blur-1)"></use><use xlink:href="#bbburst-shape-10" width="31.08596615877333" opacity="0.34405108913614124" transform="matrix(0.9470831208471147,0.3209884144427794,-0.3209884144427794,0.9470831208471147,609.2020143053217,295.4696401517068)" fill="none" stroke="#fab005" filter="url(#bbburst-blur-2)"></use><use xlink:href="#bbburst-shape-4" width="16.666515571991624" opacity="0.6764085034530252" transform="matrix(0.9748697848332842,0.22277545335854695,-0.22277545335854695,0.9748697848332842,471.2386242009037,-137.07939617094976)" fill="#fab005" filter="url(#bbburst-blur-1)"></use><use xlink:href="#bbburst-shape-4" width="23.43916040707361" opacity="0.5411299050831663" transform="matrix(0.9863184648940317,-0.16485110193468744,0.16485110193468744,0.9863184648940317,272.4586167306991,-192.90972750006222)" fill="#fab005" filter="url(#bbburst-blur-2)"></use><use xlink:href="#bbburst-shape-4" width="27.39777461747669" opacity="0.15577121162351193" transform="matrix(1.1501921121554317,-0.4894467337059535,0.4894467337059535,1.1501921121554317,75.85889114929739,309.4836115820728)" fill="#fab005" filter="url(#bbburst-blur-3)"></use><use xlink:href="#bbburst-shape-4" width="29.248293645499757" opacity="0.18855097146154065" transform="matrix(1.1822679572919745,-0.4058848077480384,0.4058848077480384,1.1822679572919745,-144.54327341201997,-80.22232064549786)" fill="#fab005" filter="url(#bbburst-blur-3)"></use><use xlink:href="#bbburst-shape-4" width="38.90767441583701" opacity="0.36698198426702766" transform="matrix(0.8829965073611913,0.469379556423091,-0.469379556423091,0.8829965073611913,359.81468703935064,229.35622383621387)" fill="#fab005" filter="url(#bbburst-blur-2)"></use><use xlink:href="#bbburst-shape-4" width="30.435120064040706" opacity="0.06602958413632132" transform="matrix(1.4266999930741529,-1.0134234701062592,1.0134234701062592,1.4266999930741529,-245.03077289152347,-514.5601783741216)" fill="#fab005" filter="url(#bbburst-blur-4)"></use><use xlink:href="#bbburst-shape-10" width="10.336755557325864" opacity="0.929728650856512" transform="matrix(0.9076117247888199,-0.41981062043004985,0.41981062043004985,0.9076117247888199,217.08518059899794,9.227307832193219)" fill="none" stroke="#fab005"></use><use xlink:href="#bbburst-shape-10" width="28.837205806078657" opacity="0.5018540084588655" transform="matrix(0.9570856004752074,-0.2898053715220125,0.2898053715220125,0.9570856004752074,93.81941503419378,-116.9040583575316)" fill="none" stroke="#fab005" filter="url(#bbburst-blur-2)"></use><use xlink:href="#bbburst-shape-10" width="44.1231108839344" opacity="0.19273472878149867" transform="matrix(0.8945013764711908,-0.8731364655603069,0.8731364655603069,0.8945013764711908,292.40146804244944,-190.80715869780968)" fill="none" stroke="#fab005" filter="url(#bbburst-blur-3)"></use><use xlink:href="#bbburst-shape-4" width="26.285062093892876" opacity="0.560748800607771" transform="matrix(0.9999132491177727,0.013171721176030358,-0.013171721176030358,0.9999132491177727,572.8208718486289,-80.24183189463656)" fill="#fab005" filter="url(#bbburst-blur-1)"></use><use xlink:href="#bbburst-shape-10" width="15.476645362975724" opacity="0.7972802332315551" transform="matrix(0.9998740411264352,0.015871417122988514,-0.015871417122988514,0.9998740411264352,468.817661251828,58.17576488141833)" fill="none" stroke="#fab005"></use><use xlink:href="#bbburst-shape-4" width="30.142733968380448" opacity="0.600992675774985" transform="matrix(0.7325255514073113,-0.6807395364861765,0.6807395364861765,0.7325255514073113,206.75667772768134,272.5951504954044)" fill="#fab005" filter="url(#bbburst-blur-1)"></use><use xlink:href="#bbburst-shape-10" width="30.037970399315753" opacity="0.5368898998776084" transform="matrix(0.8012323178983976,0.5983533845104925,-0.5983533845104925,0.8012323178983976,835.4354673983305,81.15925662690125)" fill="none" stroke="#fab005" filter="url(#bbburst-blur-2)"></use><use xlink:href="#bbburst-shape-4" width="18.85846223451421" opacity="0.8390659000076842" transform="matrix(0.7542846155525315,-0.6565475753825992,0.6565475753825992,0.7542846155525315,199.06638684478304,81.83767321906566)" fill="#fab005"></use><use xlink:href="#bbburst-shape-10" width="22.993801717589484" opacity="0.7796056264143219" transform="matrix(0.9855976319720109,0.16910738556066854,-0.16910738556066854,0.9855976319720109,554.5052262686406,17.751919064608046)" fill="none" stroke="#fab005"></use><use xlink:href="#bbburst-shape-10" width="23.891568158716208" opacity="0.613186225459273" transform="matrix(0.9552301450755263,0.29586376922325086,-0.29586376922325086,0.9552301450755263,337.2062799822687,52.9917246171355)" fill="none" stroke="#fab005" filter="url(#bbburst-blur-1)"></use><use xlink:href="#bbburst-shape-4" width="36.435261786383485" opacity="0.03987431530884156" transform="matrix(1.712934416900571,-0.3582676142180601,0.3582676142180601,1.712934416900571,-17.829305403023625,78.43092615402782)" fill="#fab005" filter="url(#bbburst-blur-4)"></use><use xlink:href="#bbburst-shape-4" width="29.512649091769493" opacity="0.3370292547552769" transform="matrix(0.9876852500511303,-0.156453976719789,0.156453976719789,0.9876852500511303,620.2749563438456,30.542919681377384)" fill="#fab005" filter="url(#bbburst-blur-2)"></use><use xlink:href="#bbburst-shape-10" width="20.34902036658137" opacity="0.7757817684792613" transform="matrix(0.9962081338201177,0.08700203509480935,-0.08700203509480935,0.9962081338201177,331.8457033514031,-38.92914512251417)" fill="none" stroke="#fab005" filter="url(#bbburst-blur-1)"></use><use xlink:href="#bbburst-shape-4" width="20.892187405718687" opacity="0.7462281947794274" transform="matrix(0.8981869720249139,0.4396136522956453,-0.4396136522956453,0.8981869720249139,597.9118935455183,-73.62916179744474)" fill="#fab005" filter="url(#bbburst-blur-1)"></use><use xlink:href="#bbburst-shape-10" width="12.33579017016078" opacity="0.9658824553291209" transform="matrix(0.9958825832879686,-0.09065252508166723,0.09065252508166723,0.9958825832879686,365.7788811376398,-10.784644718013112)" fill="none" stroke="#fab005"></use><use xlink:href="#bbburst-shape-4" width="21.714264076989025" opacity="0.6950476789931457" transform="matrix(0.9900162423432964,0.1409533252408729,-0.1409533252408729,0.9900162423432964,351.3968013556179,102.24145279250115)" fill="#fab005" filter="url(#bbburst-blur-1)"></use><use xlink:href="#bbburst-shape-4" width="44.54826245254415" opacity="0.12767526229064186" transform="matrix(1.2476626611748531,0.07640604629270967,-0.07640604629270967,1.2476626611748531,102.66999655909254,152.33145713222046)" fill="#fab005" filter="url(#bbburst-blur-3)"></use><use xlink:href="#bbburst-shape-10" width="16.71442629408933" opacity="0.8929492851006686" transform="matrix(0.818533326998729,0.5744590434420818,-0.5744590434420818,0.818533326998729,584.1397138749817,96.33272666295238)" fill="none" stroke="#fab005"></use><use xlink:href="#bbburst-shape-10" width="10.645023573981362" opacity="0.9297249684359061" transform="matrix(0.8197745630944544,-0.5726863589289485,0.5726863589289485,0.8197745630944544,198.14774983686507,76.6924247600029)" fill="none" stroke="#fab005"></use><use xlink:href="#bbburst-shape-10" width="48.95268496762228" opacity="-0.08389927440211364" transform="matrix(1.7499117832980153,-0.01757130259143342,0.01757130259143342,1.7499117832980153,3.966564894666952,-643.1456716902946)" fill="none" stroke="#fab005" filter="url(#bbburst-blur-4)"></use><use xlink:href="#bbburst-shape-10" width="14.052480512707602" opacity="0.8683977469305367" transform="matrix(0.8552845444716263,-0.5181586127702239,0.5181586127702239,0.8552845444716263,138.72621432923472,26.842024259152083)" fill="none" stroke="#fab005"></use><use xlink:href="#bbburst-shape-10" width="24.036920509994022" opacity="0.5956703641468826" transform="matrix(0.7324331864996869,-0.680838914365149,0.680838914365149,0.7324331864996869,8.661379002003684,-29.570067696986342)" fill="none" stroke="#fab005" filter="url(#bbburst-blur-1)"></use><use xlink:href="#bbburst-shape-4" width="44.057279426440715" opacity="0.07308437279924784" transform="matrix(1.634680849901356,0.624754767061269,-0.624754767061269,1.634680849901356,834.826564463285,-621.3481743006414)" fill="#fab005" filter="url(#bbburst-blur-4)"></use><use xlink:href="#bbburst-shape-10" width="34.41992013493663" opacity="0.23977769190855824" transform="matrix(1.1284542326559412,0.5376718746604574,-0.5376718746604574,1.1284542326559412,261.355456968958,12.034574919908437)" fill="none" stroke="#fab005" filter="url(#bbburst-blur-3)"></use><use xlink:href="#bbburst-shape-4" width="37.523655528844536" opacity="0.2138739322315243" transform="matrix(1.1778179067576153,0.4186227162029189,-0.4186227162029189,1.1778179067576153,781.2814142146058,184.63790532125284)" fill="#fab005" filter="url(#bbburst-blur-3)"></use><use xlink:href="#bbburst-shape-4" width="34.39477081574416" opacity="0.43178479167815886" transform="matrix(0.8354945140102129,0.5494987871313622,-0.5494987871313622,0.8354945140102129,350.2295780378968,72.5581856055341)" fill="#fab005" filter="url(#bbburst-blur-2)"></use><use xlink:href="#bbburst-shape-4" width="17.703854953232664" opacity="0.6999286591243432" transform="matrix(0.7220076370935182,-0.6918850858189056,0.6918850858189056,0.7220076370935182,215.47552511846146,209.58176569415963)" fill="#fab005" filter="url(#bbburst-blur-1)"></use><use xlink:href="#bbburst-shape-10" width="28.370269490658863" opacity="0.2752263625937579" transform="matrix(0.9126320974687884,-0.8541678141148378,0.8541678141148378,0.9126320974687884,67.1642219467007,-278.35665246133635)" fill="none" stroke="#fab005" filter="url(#bbburst-blur-3)"></use><use xlink:href="#bbburst-shape-10" width="40.27717226470923" opacity="0.09830765123596796" transform="matrix(1.7004034196344104,-0.413676456298401,0.413676456298401,1.7004034196344104,-165.51409658006094,-96.23736505665579)" fill="none" stroke="#fab005" filter="url(#bbburst-blur-4)"></use><use xlink:href="#bbburst-shape-10" width="29.164085332351608" opacity="0.08170661660258594" transform="matrix(1.4528972640999438,0.9754945104770698,-0.9754945104770698,1.4528972640999438,1127.5904667580107,-400.7659268336267)" fill="none" stroke="#fab005" filter="url(#bbburst-blur-4)"></use><use xlink:href="#bbburst-shape-10" width="13.565670409271949" opacity="0.8403117121982386" transform="matrix(0.8359681640028156,0.5487779412237355,-0.5487779412237355,0.8359681640028156,636.3850587901644,-6.341372599622616)" fill="none" stroke="#fab005"></use><use xlink:href="#bbburst-shape-4" width="34.031291361383495" opacity="0.2016340216132062" transform="matrix(1.210404056671647,0.31212500635613977,-0.31212500635613977,1.210404056671647,165.95554903410263,-210.39685239477888)" fill="#fab005" filter="url(#bbburst-blur-3)"></use><use xlink:href="#bbburst-shape-10" width="28.76173376436891" opacity="0.32398667761991073" transform="matrix(0.9103182564754452,-0.8566333357554478,0.8566333357554478,0.9103182564754452,41.772915599321266,352.38769319044025)" fill="none" stroke="#fab005" filter="url(#bbburst-blur-3)"></use><use xlink:href="#bbburst-shape-4" width="17.165163709070168" opacity="0.7839378341564651" transform="matrix(0.9126132681936975,-0.4088239507622058,0.4088239507622058,0.9126132681936975,213.65656344578463,-57.58819273879493)" fill="#fab005"></use><use xlink:href="#bbburst-shape-10" width="31.216774430012045" opacity="0.28243513765661166" transform="matrix(1.2187936869672955,-0.27756431436455575,0.27756431436455575,1.2187936869672955,561.710554163187,-221.54481585369734)" fill="none" stroke="#fab005" filter="url(#bbburst-blur-3)"></use><use xlink:href="#bbburst-shape-4" width="19.81652677262018" opacity="0.7452376885577303" transform="matrix(0.920445772018504,-0.3908702863780518,0.3908702863780518,0.920445772018504,231.50170372258137,150.31390930019683)" fill="#fab005" filter="url(#bbburst-blur-1)"></use><use xlink:href="#bbburst-shape-4" width="20.388710460358002" opacity="0.7098059225553668" transform="matrix(0.9180731340624634,0.3964110499377207,-0.3964110499377207,0.9180731340624634,451.71003886430617,-58.13939087114454)" fill="#fab005" filter="url(#bbburst-blur-1)"></use><use xlink:href="#bbburst-shape-4" width="37.39959532487889" opacity="0.05196849322092478" transform="matrix(1.5495984145049286,-0.8131695725762317,0.8131695725762317,1.5495984145049286,281.9210550066814,150.71958521974102)" fill="#fab005" filter="url(#bbburst-blur-4)"></use><use xlink:href="#bbburst-shape-10" width="26.95331586368148" opacity="0.5460347666256093" transform="matrix(0.8165071230963736,-0.5773353600229969,0.5773353600229969,0.8165071230963736,17.82947320864878,229.7270759630601)" fill="none" stroke="#fab005" filter="url(#bbburst-blur-2)"></use><use xlink:href="#bbburst-shape-4" width="34.31183647996619" opacity="0.46389037894914953" transform="matrix(0.9674298606781118,-0.2531392199330819,0.2531392199330819,0.9674298606781118,59.936290078918475,111.31635137584578)" fill="#fab005" filter="url(#bbburst-blur-2)"></use><use xlink:href="#bbburst-shape-10" width="31.071684188990783" opacity="0.07323860973283569" transform="matrix(1.327653365291743,-1.1401037416084159,1.1401037416084159,1.327653365291743,-436.1340178820029,-324.79277872391424)" fill="none" stroke="#fab005" filter="url(#bbburst-blur-4)"></use><use xlink:href="#bbburst-shape-10" width="35.84091944258098" opacity="0.45527946591708046" transform="matrix(0.9108773310873076,0.4126772197629321,-0.4126772197629321,0.9108773310873076,320.0013916654083,-59.84334540339307)" fill="none" stroke="#fab005" filter="url(#bbburst-blur-2)"></use><use xlink:href="#bbburst-shape-10" width="19.951841869886643" opacity="0.6469154299729919" transform="matrix(0.9950710730562864,-0.09916430590999392,0.09916430590999392,0.9950710730562864,422.5815440999994,-138.5889031715139)" fill="none" stroke="#fab005" filter="url(#bbburst-blur-1)"></use><use xlink:href="#bbburst-shape-10" width="38.30529138318693" opacity="0.16490071020097608" transform="matrix(1.01199118733613,0.7337396246312516,-0.7337396246312516,1.01199118733613,807.2485613953185,332.5714680394359)" fill="none" stroke="#fab005" filter="url(#bbburst-blur-3)"></use><use xlink:href="#bbburst-shape-4" width="27.726034387548975" opacity="0.575199791454951" transform="matrix(0.7524593690524051,-0.6586386702322119,0.6586386702322119,0.7524593690524051,-64.25106363656363,90.92250151878562)" fill="#fab005" filter="url(#bbburst-blur-1)"></use><use xlink:href="#bbburst-shape-4" width="35.95012523649114" opacity="0.17800620150997892" transform="matrix(1.1724628024808088,0.43339471247218536,-0.43339471247218536,1.1724628024808088,476.41612474587527,-438.77358463955153)" fill="#fab005" filter="url(#bbburst-blur-3)"></use><use xlink:href="#bbburst-shape-10" width="40.898533002037595" opacity="-0.07704483630389625" transform="matrix(1.3649856212218061,-1.0951320714223103,1.0951320714223103,1.3649856212218061,278.8050634221173,217.04426470976023)" fill="none" stroke="#fab005" filter="url(#bbburst-blur-4)"></use><use xlink:href="#bbburst-shape-10" width="32.25890218680104" opacity="0.4275615408426886" transform="matrix(0.9830844431010841,-0.1831528807653082,0.1831528807653082,0.9830844431010841,452.9247283473957,224.61640525728507)" fill="none" stroke="#fab005" filter="url(#bbburst-blur-2)"></use><use xlink:href="#bbburst-shape-10" width="42.03564261469322" opacity="0.23836944937706428" transform="matrix(1.2486864906001869,0.05728916295940703,-0.05728916295940703,1.2486864906001869,206.7363106864977,184.61280423714823)" fill="none" stroke="#fab005" filter="url(#bbburst-blur-3)"></use><use xlink:href="#bbburst-shape-4" width="17.059116568826155" opacity="0.7986568447014536" transform="matrix(0.7298170115399967,0.6836425452433664,-0.6836425452433664,0.7298170115399967,638.3936976536548,188.14933836954873)" fill="#fab005"></use><use xlink:href="#bbburst-shape-10" width="34.41083942511833" opacity="0.33688059301770323" transform="matrix(0.9847675692307649,-0.1738759172264249,0.1738759172264249,0.9847675692307649,19.659852579013034,-42.86786763335067)" fill="none" stroke="#fab005" filter="url(#bbburst-blur-2)"></use><use xlink:href="#bbburst-shape-4" width="21.85139853255832" opacity="0.6321941278057326" transform="matrix(0.999978871280689,-0.0065005378392324325,0.0065005378392324325,0.999978871280689,236.20624579942168,-69.28305696464793)" fill="#fab005" filter="url(#bbburst-blur-1)"></use><use xlink:href="#bbburst-shape-10" width="19.713021434888958" opacity="0.6843080972617863" transform="matrix(0.9974381984325942,0.07153349081053494,-0.07153349081053494,0.9974381984325942,362.3307871081231,130.68325743485786)" fill="none" stroke="#fab005" filter="url(#bbburst-blur-1)"></use><use xlink:href="#bbburst-shape-4" width="44.42514920775332" opacity="0.2995463316480812" transform="matrix(0.9498270972554225,-0.8126059840533653,0.8126059840533653,0.9498270972554225,202.98184020723062,-239.55797990445126)" fill="#fab005" filter="url(#bbburst-blur-3)"></use><use xlink:href="#bbburst-shape-10" width="32.41144117556508" opacity="0.412422253800096" transform="matrix(0.8697699781099899,-0.49345737929282985,0.49345737929282985,0.8697699781099899,389.37239913303375,-111.8753327566871)" fill="none" stroke="#fab005" filter="url(#bbburst-blur-2)"></use><use xlink:href="#bbburst-shape-10" width="13.576801397585179" opacity="0.8193170983631363" transform="matrix(0.8525572007024781,0.522633924970772,-0.522633924970772,0.8525572007024781,526.1311170781689,81.1406521689214)" fill="none" stroke="#fab005"></use><use xlink:href="#bbburst-shape-4" width="10.971677676176503" opacity="0.9328205012770207" transform="matrix(0.9669227743502739,0.2550693012551086,-0.2550693012551086,0.9669227743502739,466.737185882866,7.983316254793522)" fill="#fab005"></use><use xlink:href="#bbburst-shape-10" width="24.130094443691817" opacity="0.6875756391643577" transform="matrix(0.9360112077918921,0.3519701960222817,-0.3519701960222817,0.9360112077918921,471.7759778019237,-106.84746869650837)" fill="none" stroke="#fab005" filter="url(#bbburst-blur-1)"></use><use xlink:href="#bbburst-shape-10" width="41.716040231126534" opacity="-0.08571159483205593" transform="matrix(1.2992214664742234,1.1724007766342395,-1.1724007766342395,1.2992214664742234,487.6537037453403,192.36594125916827)" fill="none" stroke="#fab005" filter="url(#bbburst-blur-4)"></use><use xlink:href="#bbburst-shape-4" width="34.7032329860513" opacity="0.43020666199356405" transform="matrix(0.7750844906494071,0.6318576044923011,-0.6318576044923011,0.7750844906494071,508.1792888329753,299.38720085442253)" fill="#fab005" filter="url(#bbburst-blur-2)"></use><use xlink:href="#bbburst-shape-4" width="12.796503573017414" opacity="0.845894478484388" transform="matrix(0.9999730048832599,0.007347755081918584,-0.007347755081918584,0.9999730048832599,327.3673078897809,-4.932289792167353)" fill="#fab005"></use><use xlink:href="#bbburst-shape-10" width="11.061936931499222" opacity="0.9616743781181203" transform="matrix(0.9942185519400579,0.1073753741703109,-0.1073753741703109,0.9942185519400579,432.9251434225189,18.360759604516886)" fill="none" stroke="#fab005"></use><use xlink:href="#bbburst-shape-10" width="14.035941649499348" opacity="0.8037882119737887" transform="matrix(0.9133739680409997,-0.40712159670673187,0.40712159670673187,0.9133739680409997,170.61946940692332,102.17150172087361)" fill="none" stroke="#fab005"></use><use xlink:href="#bbburst-shape-4" width="45.067730505362206" opacity="0.13689086800688666" transform="matrix(1.2104436257540891,0.3119715193271572,-0.3119715193271572,1.2104436257540891,215.92390708333102,-358.6814875183784)" fill="#fab005" filter="url(#bbburst-blur-3)"></use><use xlink:href="#bbburst-shape-10" width="24.43089173138888" opacity="0.5595865609762937" transform="matrix(0.7963752083103819,-0.6048028832508952,0.6048028832508952,0.7963752083103819,79.41536713305845,274.64857149234285)" fill="none" stroke="#fab005" filter="url(#bbburst-blur-1)"></use><use xlink:href="#bbburst-shape-10" width="37.22033472719438" opacity="0.28840306556265394" transform="matrix(1.0679061647245405,-0.6496740900969676,0.6496740900969676,1.0679061647245405,-161.6732744220978,136.76876671373128)" fill="none" stroke="#fab005" filter="url(#bbburst-blur-3)"></use><use xlink:href="#bbburst-shape-10" width="13.030956345232882" opacity="0.869484943123965" transform="matrix(0.8290052422308539,-0.559240832158886,0.559240832158886,0.8290052422308539,224.73295449101542,95.52954167183799)" fill="none" stroke="#fab005"></use><use xlink:href="#bbburst-shape-10" width="21.406631713498523" opacity="0.7199448191534439" transform="matrix(0.9506750016248053,-0.3101887188240029,0.3101887188240029,0.9506750016248053,139.90332310113635,16.33509711179272)" fill="none" stroke="#fab005" filter="url(#bbburst-blur-1)"></use><use xlink:href="#bbburst-shape-10" width="29.725831927389464" opacity="0.26588642161795384" transform="matrix(1.165094941547383,-0.4528286399739972,0.4528286399739972,1.165094941547383,495.6382969567486,91.17496579397834)" fill="none" stroke="#fab005" filter="url(#bbburst-blur-3)"></use></svg>