<svg xmlns="http://www.w3.org/2000/svg" version="1.1" xmlns:xlink="http://www.w3.org/1999/xlink" xmlns:svgjs="http://svgjs.dev/svgjs" viewBox="0 0 800 800"><defs><filter id="llleaves-blur-2" x="-100%" y="-100%" width="400%" height="400%"><feGaussianBlur in="SourceGraphic" stdDeviation="2"></feGaussianBlur></filter><filter id="llleaves-blur-3" x="-100%" y="-100%" width="400%" height="400%"><feGaussianBlur in="SourceGraphic" stdDeviation="4"></feGaussianBlur></filter><filter id="llleaves-blur-4" x="-100%" y="-100%" width="400%" height="400%"><feGaussianBlur in="SourceGraphic" stdDeviation="12"></feGaussianBlur></filter></defs><g fill="#fab005"><path d="M518 343H568C596 343 618 365 618 393H568C540 393 518 371 518 343Z " transform="matrix(-0.3400188344389059,0.09110777209927655,-0.09110777209927655,-0.3400188344389059,794.6583580938324,441.3777165211283)" filter="url(#llleaves-blur-2)" opacity="0.54"></path><path d="M699 422H749C777 422 799 444 799 472H749C721 472 699 450 699 422Z " transform="matrix(-0.27180596465978973,0.17651285732644156,-0.17651285732644156,-0.27180596465978973,1031.483914755102,436.28913606542125)" filter="url(#llleaves-blur-2)" opacity="0.50"></path><path d="M494 532H544C572 532 594 554 594 582H544C516 582 494 560 494 532Z " transform="matrix(-0.360922847407232,0.04431575333872304,-0.04431575333872304,-0.360922847407232,765.0259035992029,733.9262561895629)" filter="url(#llleaves-blur-2)" opacity="0.56"></path><path d="M9 647H59C87 647 109 669 109 697H59C31 697 9 675 9 647Z " transform="matrix(0.01797815684302672,-0.514827052916891,0.514827052916891,0.01797815684302672,-288.0244908138893,690.2934747235826)" opacity="0.79"></path><path d="M223 625H273C301 625 323 647 323 675H273C245 675 223 653 223 625Z " transform="matrix(-0.2206110086219764,-0.4149089624620989,0.4149089624620989,-0.2206110086219764,63.53597975343524,906.6673023564376)" opacity="0.72"></path><path d="M292 529H342C370 529 392 551 392 579H342C314 579 292 557 292 529Z " transform="matrix(-0.30959700205697666,-0.3205970806886804,0.3205970806886804,-0.30959700205697666,270.27139200195705,835.1609407350937)" opacity="0.68"></path><path d="M700 316H750C778 316 800 338 800 366H750C722 366 700 344 700 316Z " transform="matrix(-0.27218878279838243,0.1767614623324574,-0.1767614623324574,-0.27218878279838243,1014.4172457541548,301.2452781849054)" filter="url(#llleaves-blur-2)" opacity="0.50"></path><path d="M4 467H54C82 467 104 489 104 517H54C26 517 4 495 4 467Z " transform="matrix(0.01797815684302672,-0.514827052916891,0.514827052916891,0.01797815684302672,-200.2657305046338,510.95540769074296)" opacity="0.79"></path><path d="M597 269H647C675 269 697 291 697 319H647C619 319 597 297 597 269Z " transform="matrix(-0.2976506337879596,0.15166057297311178,-0.15166057297311178,-0.2976506337879596,884.1681685149047,283.3848956200568)" filter="url(#llleaves-blur-2)" opacity="0.51"></path><path d="M329 273H379C407 273 429 295 429 323H379C351 323 329 301 329 273Z " transform="matrix(-0.34072157382449303,-0.26620086826982353,0.26620086826982353,-0.34072157382449303,428.80561773507543,500.42515807396205)" opacity="0.66"></path><path d="M164 340H214C242 340 264 362 264 390H214C186 390 164 368 164 340Z " transform="matrix(-0.1268552945866021,-0.47343040460631647,0.47343040460631647,-0.1268552945866021,68.34493536022737,512.6162891098616)" opacity="0.75"></path><path d="M389 202H439C467 202 489 224 489 252H439C411 252 389 230 389 202Z " transform="matrix(-0.38232737242266013,-0.13164587164160357,0.13164587164160357,-0.38232737242266013,576.9581036309038,371.58085119060775)" opacity="0.62"></path><path d="M-4 139H46C74 139 96 161 96 189H46C18 189 -4 167 -4 139Z " transform="matrix(-0.08622211600352746,-0.48898991893977445,0.48898991893977445,-0.08622211600352746,-30.228129369960755,200.63396329580814)" opacity="0.76"></path><path d="M270 731H320C348 731 370 753 370 781H320C292 781 270 759 270 731Z " transform="matrix(-0.29057954285433,-0.3462992141310309,0.3462992141310309,-0.29057954285433,151.1832478303263,1086.4938829198034)" opacity="0.69"></path><path d="M295 136H345C373 136 395 158 395 186H345C317 186 295 164 295 136Z " transform="matrix(-0.3306690422622571,-0.28744621304497353,0.28744621304497353,-0.3306690422622571,412.80197928023796,313.40665930473926)" opacity="0.67"></path><path d="M438 22H488C516 22 538 44 538 72H488C460 72 438 50 438 22Z " transform="matrix(-0.3200599307404541,0.1228594964671864,-0.1228594964671864,-0.3200599307404541,649.9636425352994,2.0873824688143827)" filter="url(#llleaves-blur-2)" opacity="0.53"></path><path d="M141 14H191C219 14 241 36 241 64H191C163 64 141 42 141 14Z " transform="matrix(-0.3831383703181903,-0.11713715505034074,0.11713715505034074,-0.3831383703181903,259.611079683811,76.31559305702453)" opacity="0.61"></path><path d="M334 402H384C412 402 434 424 434 452H384C356 452 334 430 334 402Z " transform="matrix(-0.3568599693200261,-0.23174757378465563,0.23174757378465563,-0.3568599693200261,422.07801421284205,668.3702752329589)" opacity="0.65"></path><path d="M623 21H673C701 21 723 43 723 71H673C645 71 623 49 623 21Z " transform="matrix(-0.13181708730837544,0.24791188468572994,-0.24791188468572994,-0.13181708730837544,773.1168464540801,-114.78111237731099)" filter="url(#llleaves-blur-3)" opacity="0.43"></path><path d="M386 490H436C464 490 486 512 486 540H436C408 540 386 518 386 490Z " transform="matrix(-0.38232737242266013,-0.13164587164160357,0.13164587164160357,-0.38232737242266013,534.897110480854,769.2961968334091)" opacity="0.62"></path><path d="M-11 259H39C67 259 89 281 89 309H39C11 309 -11 287 -11 259Z " transform="matrix(0.018010096440959203,-0.51574168333304,0.51574168333304,0.018010096440959203,-108.17303182778079,298.99905826075616)" opacity="0.79"></path><path d="M593 595H643C671 595 693 617 693 645H643C615 645 593 623 593 595Z " transform="matrix(-0.2976506337879596,0.15166057297311178,-0.15166057297311178,-0.2976506337879596,928.4189127689873,707.0256445268241)" filter="url(#llleaves-blur-2)" opacity="0.51"></path><path d="M327 650H377C405 650 427 672 427 700H377C349 700 327 678 327 650Z " transform="matrix(-0.34072157382449303,-0.26620086826982353,0.26620086826982353,-0.34072157382449303,325.766447249703,1005.3447896692562)" opacity="0.66"></path><path d="M706 218H756C784 218 806 240 806 268H756C728 268 706 246 706 218Z " transform="matrix(-0.27218878279838243,0.1767614623324574,-0.1767614623324574,-0.27218878279838243,1004.7277551423642,175.51020869666914)" filter="url(#llleaves-blur-2)" opacity="0.50"></path><path d="M527 22H577C605 22 627 44 627 72H577C549 72 527 50 527 22Z " transform="matrix(-0.23124712226501745,0.20821584411965885,-0.20821584411965885,-0.23124712226501745,720.215734220539,-62.27192731058733)" filter="url(#llleaves-blur-2)" opacity="0.48"></path><path d="M476 248H526C554 248 576 270 576 298H526C498 298 476 276 476 248Z " transform="matrix(-0.3694338564479935,0.019361208008409164,-0.019361208008409164,-0.3694338564479935,725.6078182779403,363.671447397879)" filter="url(#llleaves-blur-2)" opacity="0.57"></path><path d="M-7 560H43C71 560 93 582 93 610H43C15 610 -7 588 -7 560Z " transform="matrix(0.018010096440959203,-0.51574168333304,0.51574168333304,0.018010096440959203,-259.4833188967897,596.6409859653596)" opacity="0.79"></path><path d="M226 432H276C304 432 326 454 326 482H276C248 482 226 460 226 432Z " transform="matrix(-0.2206110086219764,-0.4149089624620989,0.4149089624620989,-0.2206110086219764,147.2752425344863,672.3341045797825)" opacity="0.72"></path><path d="M686 726H736C764 726 786 748 786 776H736C708 776 686 754 686 726Z " transform="matrix(-0.27180596465978973,0.17651285732644156,-0.17651285732644156,-0.27180596465978973,1068.6103458417629,825.212816467241)" filter="url(#llleaves-blur-2)" opacity="0.50"></path><path d="M74 320H124C152 320 174 342 174 370H124C96 370 74 348 74 320Z " transform="matrix(-0.026575885724116958,-0.5070981080993159,0.5070981080993159,-0.026575885724116958,-47.65343746447351,417.04884597913554)" opacity="0.78"></path><path d="M410 328H460C488 328 510 350 510 378H460C432 378 410 356 410 328Z " transform="matrix(-0.3837277419281779,-0.10281953856307335,0.10281953856307335,-0.3837277419281779,600.2194641741969,535.7528806396606)" filter="url(#llleaves-blur-2)" opacity="0.61"></path><path d="M-14 30H36C64 30 86 52 86 80H36C8 80 -14 58 -14 30Z " transform="matrix(-0.36680543722958775,-0.2033235739784509,0.2033235739784509,-0.36680543722958775,38.02219917145036,82.49394771085156)" opacity="0.64"></path><path d="M104 121H154C182 121 204 143 204 171H154C126 171 104 149 104 121Z " transform="matrix(-0.20068258038554918,-0.43036518246252536,0.43036518246252536,-0.20068258038554918,122.07180073984586,241.57589483551908)" opacity="0.73"></path><path d="M539 186H589C617 186 639 208 639 236H589C561 236 539 214 539 186Z " transform="matrix(-0.32982607524348817,0.10716698817780591,-0.10716698817780591,-0.32982607524348817,805.8797928239317,217.47194583964833)" filter="url(#llleaves-blur-2)" opacity="0.53"></path><path d="M582 469H632C660 469 682 491 682 519H632C604 519 582 497 582 469Z " transform="matrix(-0.30858283623795335,0.13738993048700338,-0.13738993048700338,-0.30858283623795335,894.8949781629663,559.6094850337628)" filter="url(#llleaves-blur-2)" opacity="0.52"></path><path d="M582 98H632C660 98 682 120 682 148H632C604 148 582 126 582 98Z " transform="matrix(-0.2678342108521238,0.18065645632152783,-0.18065645632152783,-0.2678342108521238,823.4919653860902,41.76872753960565)" filter="url(#llleaves-blur-2)" opacity="0.49"></path><path d="M15 733H65C93 733 115 755 115 783H65C37 783 15 761 15 733Z " transform="matrix(0.01797815684302672,-0.514827052916891,0.514827052916891,0.01797815684302672,-326.4074863058001,777.8363155525836)" opacity="0.79"></path><path d="M563 723H613C641 723 663 745 663 773H613C585 773 563 751 563 723Z " transform="matrix(-0.3171375073572842,0.12813187016833288,-0.12813187016833288,-0.3171375073572842,903.2479308959282,906.6740190900605)" filter="url(#llleaves-blur-2)" opacity="0.52"></path></g><g fill="none" stroke-width="3" stroke="#fab005"><path d="M696 628H746C774 628 796 650 796 678H746C718 678 696 656 696 628Z " transform="matrix(-0.27180596465978973,0.17651285732644156,-0.17651285732644156,-0.27180596465978973,1064.0301454703697,698.8107033573173)" filter="url(#llleaves-blur-2)" opacity="0.50"></path><path d="M64 211H114C142 211 164 233 164 261H114C86 261 64 239 64 211Z " transform="matrix(-0.017805474768259034,-0.5098820852864188,0.5098820852864188,-0.017805474768259034,-4.302348004013297,298.3286497679609)" opacity="0.78"></path><path d="M256 333H306C334 333 356 355 356 383H306C278 383 256 361 256 333Z " transform="matrix(-0.2693442610165262,-0.37072057124581526,0.37072057124581526,-0.2693442610165262,255.70137936505515,567.8657402451358)" opacity="0.70"></path><path d="M384 108H434C462 108 484 130 484 158H434C406 158 384 136 384 108Z " transform="matrix(-0.38514623188283403,-0.07486484361661265,0.07486484361661265,-0.38514623188283403,591.1964404361405,216.71579097002683)" filter="url(#llleaves-blur-2)" opacity="0.60"></path><path d="M59 31H109C137 31 159 53 159 81H109C81 81 59 59 59 31Z " transform="matrix(-0.3687475030314441,-0.1960665252634386,0.1960665252634386,-0.3687475030314441,138.21375241567483,98.02111142347569)" opacity="0.64"></path><path d="M401 593H451C479 593 501 615 501 643H451C423 643 401 621 401 593Z " transform="matrix(-0.3837277419281779,-0.10281953856307335,0.10281953856307335,-0.3837277419281779,560.5187367776289,901.5153564035602)" filter="url(#llleaves-blur-2)" opacity="0.61"></path><path d="M119 639H169C197 639 219 661 219 689H169C141 689 119 667 119 639Z " transform="matrix(-0.07795293485104042,-0.4921754604891208,0.4921754604891208,-0.07795293485104042,-144.6304597749504,798.9384015637522)" opacity="0.77"></path><path d="M475 122H525C553 122 575 144 575 172H525C497 172 475 150 475 122Z " transform="matrix(-0.359246015075804,0.05048873482226151,-0.05048873482226151,-0.359246015075804,721.0260019336696,173.30257843445588)" filter="url(#llleaves-blur-2)" opacity="0.56"></path><path d="M708 21H758C786 21 808 43 808 71H758C730 71 708 49 708 21Z " transform="matrix(-0.10162108851591332,0.2515210202155908,-0.2515210202155908,-0.10162108851591332,846.5987520249796,-139.97836325168583)" filter="url(#llleaves-blur-3)" opacity="0.41"></path><path d="M-3 372H47C75 372 97 394 97 422H47C19 422 -3 400 -3 372Z " transform="matrix(0.018010096440959203,-0.51574168333304,0.51574168333304,0.018010096440959203,-158.59592281594198,414.0898508295921)" opacity="0.79"></path><path d="M464 424H514C542 424 564 446 564 474H514C486 474 464 452 464 424Z " transform="matrix(-0.37645343915173773,-0.00657101922284427,0.00657101922284427,-0.37645343915173773,704.5466800929361,621.4050980596722)" filter="url(#llleaves-blur-2)" opacity="0.58"></path><path d="M197 146H247C275 146 297 168 297 196H247C219 196 197 174 197 146Z " transform="matrix(-0.20055006424975044,-0.4300810006922258,0.4300810006922258,-0.20055006424975044,222.99201475131775,311.5240681576871)" opacity="0.73"></path><path d="M700 113H750C778 113 800 135 800 163H750C722 163 700 141 700 113Z " transform="matrix(-0.22184676061237665,0.21423492645068418,-0.21423492645068418,-0.22184676061237665,945.9494903094769,7.938658126494886)" filter="url(#llleaves-blur-2)" opacity="0.47"></path><path d="M611 371H661C689 371 711 393 711 421H661C633 421 611 399 611 371Z " transform="matrix(-0.28941042137458767,0.1604228161526939,-0.1604228161526939,-0.28941042137458767,915.8277237250691,404.56704538740604)" filter="url(#llleaves-blur-2)" opacity="0.51"></path><path d="M266 20H316C344 20 366 42 366 70H316C288 70 266 48 266 20Z " transform="matrix(-0.3843799218092139,-0.07471588802760702,0.07471588802760702,-0.3843799218092139,434.1018403304694,85.90731709813846)" filter="url(#llleaves-blur-2)" opacity="0.60"></path><path d="M144 730H194C222 730 244 752 244 780H194C166 780 144 758 144 730Z " transform="matrix(-0.1027914288806375,-0.48359565130815924,0.48359565130815924,-0.1027914288806375,-151.1731795348166,926.4250851586642)" opacity="0.76"></path><path d="M181 524H231C259 524 281 546 281 574H231C203 574 181 552 181 524Z " transform="matrix(-0.15003514677323357,-0.4617607012216536,0.4617607012216536,-0.15003514677323357,12.151493933929117,738.0360175607073)" opacity="0.75"></path><path d="M349 24H399C427 24 449 46 449 74H399C371 74 349 52 349 24Z " transform="matrix(-0.3752899083688872,4.5959758503626117e-17,-4.5959758503626117e-17,-0.3752899083688872,548.740673439186,67.38920551007544)" filter="url(#llleaves-blur-2)" opacity="0.58"></path><path d="M492 647H542C570 647 592 669 592 697H542C514 697 492 675 492 647Z " transform="matrix(-0.360922847407232,0.04431575333872304,-0.04431575333872304,-0.360922847407232,767.4003695383418,890.5210151480719)" filter="url(#llleaves-blur-2)" opacity="0.56"></path><path d="M150 236H200C228 236 250 258 250 286H200C172 286 150 264 150 236Z " transform="matrix(-0.1268552945866021,-0.47343040460631647,0.47343040460631647,-0.1268552945866021,101.80572331507183,388.7953128083665)" opacity="0.75"></path><path d="M691 523H741C769 523 791 545 791 573H741C713 573 691 551 691 523Z " transform="matrix(-0.27180596465978973,0.17651285732644156,-0.17651285732644156,-0.27180596465978973,1039.1372656277942,566.1536413546715)" filter="url(#llleaves-blur-2)" opacity="0.50"></path><path d="M415 728H465C493 728 515 750 515 778H465C437 778 415 756 415 728Z " transform="matrix(-0.3837277419281779,-0.10281953856307335,0.10281953856307335,-0.3837277419281779,566.0102874586084,1089.7580751037472)" filter="url(#llleaves-blur-2)" opacity="0.61"></path><path d="M107 432H157C185 432 207 454 207 482H157C129 482 107 460 107 432Z " transform="matrix(-0.0611602805817914,-0.498110512690238,0.498110512690238,-0.0611602805817914,-61.03434024809749,563.153598718246)" opacity="0.77"></path><path d="M245 230H295C323 230 345 252 345 280H295C267 280 245 258 245 230Z " transform="matrix(-0.2459836982822156,-0.39365620594224526,0.39365620594224526,-0.2459836982822156,267.1828584779811,433.8544238149274)" opacity="0.71"></path><path d="M202 60H252C280 60 302 82 302 110H252C224 110 202 88 202 60Z " transform="matrix(-0.3512238996187089,-0.24592962211243022,0.24592962211243022,-0.3512238996187089,319.6044048243581,176.82829623992268)" opacity="0.66"></path><path d="M630 175H680C708 175 730 197 730 225H680C652 225 630 203 630 175Z " transform="matrix(-0.2814264215096229,0.16909805383898321,-0.16909805383898321,-0.2814264215096229,905.1895773943401,141.29860769141598)" filter="url(#llleaves-blur-2)" opacity="0.50"></path><path d="M86 545H136C164 545 186 567 186 595H136C108 595 86 573 86 545Z " transform="matrix(-0.04401483511637869,-0.5030918674776246,0.5030918674776246,-0.04401483511637869,-144.7763468864186,663.5089499932928)" opacity="0.78"></path></g></svg>